# xmcd
# Track frame offsets:
# 150
# 13645
# 34825
# 52893
# 75456
# 96883
# 115752
# 132449
# 151527
# 169929
# 186893
# 207745
# 226379
# 246096
# 263079
#
# Disc length: 3755 seconds
# Revision: 0
# Processed by: cddbd v1.5.2PL0 Copyright (c) Steve Scherf et al.
# Submitted via: VisiTrax 2.10.0.248 - For more info visit www.synapsa.com
#
DISCID=be0ea90f
DTITLE=BRAULIO - COLECCIÓN IMPOSIBLES DE OLVIDAR
DYEAR=1900
DGENRE=
TTITLE0=SOBRAN LAS PALABRAS
TTITLE1=NAVEGAR EN TI
TTITLE2=NOCHE DE BODA
TTITLE3=SÓLOS TÚ Y YO
TTITLE4=CRÓNICA DE UN VIEJO AMOR
TTITLE5=DÉJALO VOLVER
TTITLE6=UNA MUJER COMO TÚ
TTITLE7=ENCADENADOS
TTITLE8=PEQUEÑA AMANTE
TTITLE9=AMÁNDOTE SOÑÁNDOTE
TTITLE10=QUÉ TENTACIÓN
TTITLE11=EN LA CÁRCEL DE TU PIEL
TTITLE12=EN BANCARROTA
TTITLE13=LA MÁS BELLA HEREJÍA
TTITLE14=LO BELLO Y LO PROHIBIDO
EXTD=
EXTT0=
EXTT1=
EXTT2=
EXTT3=
EXTT4=
EXTT5=
EXTT6=
EXTT7=
EXTT8=
EXTT9=
EXTT10=
EXTT11=
EXTT12=
EXTT13=
EXTT14=
PLAYORDER=
